<?xml version="1.0" encoding="utf-8"?>
<!-- Generator: Adobe Illustrator 24.0.1, SVG Export Plug-In . SVG Version: 6.00 Build 0)  -->
<svg version="1.1" xmlns="http://www.w3.org/2000/svg" xmlns:xlink="http://www.w3.org/1999/xlink" x="0px" y="0px"
	 viewBox="0 0 52.3 42.7" style="enable-background:new 0 0 52.3 42.7;" xml:space="preserve">
<style type="text/css">
	.st0{enable-background:new    ;}
</style>
<g id="Layer_1">
	<g class="st0">
		<path d="M19,28.2h-2.5v7.1h-1.6v-7.1h-2.5V27H19V28.2z"/>
		<path d="M23.9,29.4v6H23c-0.2,0-0.3-0.1-0.4-0.3l-0.1-0.5c-0.2,0.2-0.5,0.4-0.8,0.6c-0.3,0.2-0.6,0.2-1,0.2
			c-0.3,0-0.6-0.1-0.9-0.2c-0.2-0.1-0.5-0.3-0.6-0.5c-0.2-0.2-0.3-0.4-0.4-0.7s-0.1-0.6-0.1-0.9v-3.8h1.4v3.8c0,0.4,0.1,0.6,0.3,0.8
			c0.2,0.2,0.4,0.3,0.8,0.3c0.2,0,0.5-0.1,0.7-0.2c0.2-0.1,0.4-0.3,0.6-0.5v-4.3h1.4V29.4z"/>
		<path d="M27.3,35.4c-0.5,0-0.9-0.1-1.2-0.4c-0.3-0.3-0.4-0.7-0.4-1.2v-3.3h-0.6c-0.1,0-0.1,0-0.2-0.1s-0.1-0.1-0.1-0.2v-0.6l1-0.2
			l0.3-1.6c0-0.1,0.1-0.1,0.1-0.2c0.1,0,0.1-0.1,0.2-0.1h0.7v1.9h1.6v1h-1.6v3.2c0,0.2,0,0.3,0.1,0.4c0.1,0.1,0.2,0.2,0.4,0.2
			c0.1,0,0.2,0,0.2,0c0.1,0,0.1,0,0.2-0.1c0,0,0.1,0,0.1-0.1h0.1h0.1l0.1,0.1l0.4,0.7c-0.2,0.2-0.4,0.3-0.7,0.4
			C27.9,35.4,27.6,35.4,27.3,35.4z"/>
		<path d="M32.3,29.3c0.4,0,0.8,0.1,1.2,0.2s0.7,0.3,0.9,0.6c0.3,0.3,0.5,0.6,0.6,1s0.2,0.8,0.2,1.3c0,0.5-0.1,0.9-0.2,1.3
			c-0.1,0.4-0.3,0.7-0.6,1s-0.6,0.5-0.9,0.6c-0.4,0.1-0.8,0.2-1.2,0.2c-0.4,0-0.8-0.1-1.2-0.2c-0.4-0.1-0.7-0.3-0.9-0.6
			c-0.3-0.3-0.5-0.6-0.6-1s-0.2-0.8-0.2-1.3s0.1-0.9,0.2-1.3s0.3-0.7,0.6-1c0.3-0.3,0.6-0.5,0.9-0.6C31.4,29.4,31.8,29.3,32.3,29.3z
			 M32.3,34.3c0.5,0,0.9-0.2,1.1-0.5c0.2-0.3,0.4-0.8,0.4-1.5s-0.1-1.1-0.4-1.5c-0.2-0.3-0.6-0.5-1.1-0.5s-0.9,0.2-1.1,0.5
			s-0.4,0.8-0.4,1.5c0,0.6,0.1,1.1,0.4,1.5C31.4,34.2,31.8,34.3,32.3,34.3z"/>
		<path d="M37.6,30.4c0.2-0.4,0.4-0.6,0.7-0.8c0.3-0.2,0.6-0.3,0.9-0.3c0.3,0,0.5,0.1,0.7,0.2l-0.1,1.1c0,0.1,0,0.1-0.1,0.1h-0.1
			c-0.1,0-0.1,0-0.3,0c-0.1,0-0.2,0-0.3,0c-0.2,0-0.3,0-0.4,0.1c-0.1,0-0.2,0.1-0.3,0.2s-0.2,0.2-0.3,0.3c-0.1,0.1-0.1,0.3-0.2,0.4
			v3.7h-1.4v-6h0.8c0.1,0,0.2,0,0.3,0.1s0.1,0.1,0.1,0.3L37.6,30.4z"/>
	</g>
</g>
<g id="Layer_2">
	<path d="M36,9.7l-8.7-2.4c-0.1,0-1.1-0.4-2.1,0l-8.5,2.2c-0.6,0.1-1.8,0.6-1.8,2.1c0,1.1,1,1.7,1.7,1.9l-0.1,0.5
		c-0.4,0.2-0.7,0.5-0.7,0.9c0,0.3,0.2,0.6,0.4,0.8l-0.7,4c0,0.8,1.4,0.8,1.6,0.8s1.5,0.2,1.5-0.8l-0.7-4c0.3-0.2,0.4-0.5,0.4-0.8
		c0-0.4-0.3-0.8-0.7-0.9l0-0.3l2.4,0.7l-0.4,3.9c0,0.3,0.1,0.5,0.3,0.7c0.2,0.1,2.7,1.4,6.3,1.4c1.9,0,4.1-0.4,6.3-1.5
		c0.2-0.1,0.4-0.4,0.3-0.7l-0.5-3.6l3.9-1.1c0.5-0.1,1.5-0.8,1.5-2C37.5,10.3,36.5,9.8,36,9.7z M31.3,17.9
		c-4.7,2.2-9.2,0.7-10.6,0.1l0.4-3.2l4,1.1c0.1,0,0.5,0.2,1.2,0.2c0.3,0,0.7,0,1.1-0.2l3.5-1L31.3,17.9z M35.7,12.3L27,14.7
		c-0.7,0.3-1.3,0-1.4,0L19.4,13l7-1.5c0.2,0,0.4-0.3,0.3-0.6c0-0.2-0.3-0.4-0.5-0.3l-8.5,1.9L17,12.4c-0.2-0.1-0.9-0.4-0.9-0.7
		c0-0.6,0.6-0.8,0.8-0.8l8.6-2.3c0,0,0,0,0.1,0c0.2-0.1,0.4-0.1,0.6-0.1c0.4,0,0.7,0.1,0.7,0.1l8.9,2.5c0.2,0,0.5,0.1,0.5,0.5
		C36.3,12.1,35.8,12.2,35.7,12.3z"/>
</g>
</svg>
