<?xml version="1.0" encoding="utf-8"?>
<!-- Generator: Adobe Illustrator 24.0.1, SVG Export Plug-In . SVG Version: 6.00 Build 0)  -->
<svg version="1.1" id="Layer_1" xmlns="http://www.w3.org/2000/svg" xmlns:xlink="http://www.w3.org/1999/xlink" x="0px" y="0px"
	 viewBox="0 0 52.3 42.7" style="enable-background:new 0 0 52.3 42.7;" xml:space="preserve">
<style type="text/css">
	.st0{enable-background:new    ;}
</style>
<g>
	<path id="Caminho_66" d="M16.9,13.6c-0.1,0-0.2-0.1-0.3-0.1c-0.2-0.1-0.4-0.1-0.6-0.2c-0.1,0-0.2-0.1-0.3-0.2
		c-0.2-0.1-0.4-0.3-0.5-0.6C15.1,12.4,15,12.2,15,12c-0.1-0.2,0-0.5,0-0.7c0.1-0.3,0.3-0.6,0.5-0.8c0.2-0.2,0.5-0.3,0.8-0.4l1.1-0.3
		c0.3-0.1,0.5-0.2,0.8-0.2s0.5-0.2,0.8-0.3c0.8-0.2,1.6-0.5,2.4-0.7c0.4-0.1,0.9-0.3,1.3-0.4c0.4-0.1,0.7-0.2,1.1-0.3
		c0.4-0.1,0.8-0.2,1.2-0.4c0.2-0.1,0.4-0.1,0.6-0.2c0.3-0.1,0.6-0.1,0.9,0c0.4,0.1,0.7,0.1,1.1,0.3c0.6,0.2,1.2,0.4,1.7,0.5
		c0.3,0.1,0.7,0.2,1,0.3C31,8.6,31.6,8.8,32.3,9c0.3,0.1,0.5,0.2,0.8,0.3c0.3,0.1,0.5,0.2,0.8,0.2c0.3,0.1,0.6,0.2,0.9,0.3
		c0.4,0.1,0.8,0.2,1.2,0.4c0.2,0.1,0.5,0.2,0.7,0.3c0.3,0.2,0.6,0.6,0.6,1c0.1,0.3,0,0.6-0.1,0.9c-0.2,0.4-0.5,0.8-1,0.9
		c-0.4,0.1-0.9,0.3-1.3,0.4c-0.3,0.1-0.6,0.2-0.9,0.3l-1.5,0.5l-0.1,0c-0.1,0-0.1,0-0.1,0.2c0,0.3,0.1,0.5,0.1,0.8
		c0,0.3,0.1,0.5,0.1,0.8c0,0.3,0.1,0.7,0.1,1c0,0,0,0.1,0,0.1c0,0.3,0.1,0.5,0.1,0.8c0,0.1,0,0.1,0,0.2c0,0.2,0,0.4-0.1,0.6
		c-0.1,0.2-0.3,0.4-0.5,0.5c-0.3,0.2-0.6,0.4-1,0.5c-0.6,0.2-1.2,0.4-1.8,0.5c-0.3,0.1-0.6,0.1-0.9,0.1c-0.3,0-0.6,0.1-0.9,0.1
		c0,0,0,0,0,0c-0.7,0-1.4,0.1-2.1,0c-0.2,0-0.5,0-0.7,0c-0.3,0-0.7-0.1-1-0.1c-0.4,0-0.9-0.1-1.3-0.2c-0.6-0.1-1.1-0.3-1.7-0.5
		c-0.2-0.1-0.5-0.2-0.7-0.4c-0.2-0.1-0.3-0.2-0.4-0.4c-0.1-0.2-0.2-0.4-0.3-0.6c0,0,0-0.1,0-0.1c0.1-0.4,0.1-0.8,0.1-1.1
		c0-0.3,0.1-0.5,0.1-0.8c0-0.3,0.1-0.5,0.1-0.8c0-0.2,0-0.3,0.1-0.5c0-0.2,0.1-0.5,0.1-0.7c0,0,0-0.1,0-0.1c0,0-0.1,0-0.1-0.1
		L18.4,14c-0.1,0-0.2-0.1-0.3-0.1c0,0-0.1,0-0.1,0c0,0,0,0,0,0c-0.1,0.2-0.1,0.2,0,0.4c0.2,0.2,0.3,0.5,0.3,0.8
		c0,0.2-0.1,0.4-0.2,0.5c-0.1,0.1-0.2,0.2-0.3,0.3c-0.1,0-0.1,0.1-0.1,0.2c0.1,0.3,0.1,0.6,0.2,0.9c0.1,0.5,0.2,0.9,0.3,1.4
		s0.2,1,0.3,1.4c0,0.1,0,0.1,0,0.2c0,0.3-0.2,0.6-0.5,0.6c0,0-0.1,0-0.1,0h-1.8c-0.1,0-0.2,0-0.3,0c-0.2-0.1-0.4-0.3-0.4-0.5
		c0-0.1,0-0.1,0-0.2c0.1-0.6,0.3-1.2,0.4-1.8c0.1-0.5,0.2-1,0.3-1.5c0-0.1,0.1-0.3,0.1-0.4c0,0,0-0.1,0-0.1c0-0.1,0-0.1-0.1-0.2
		c0,0-0.1-0.1-0.1-0.1c-0.2-0.2-0.2-0.4-0.3-0.6c0-0.2,0-0.5,0.1-0.7c0.1-0.1,0.2-0.3,0.4-0.4c0.1-0.1,0.2-0.1,0.2-0.2
		C16.8,13.8,16.9,13.7,16.9,13.6z M27,16.1c0,0-0.1,0-0.1,0c-0.2,0.1-0.5,0.1-0.8,0.1c-0.1,0-0.3,0-0.4,0c-0.3-0.1-0.5-0.1-0.8-0.2
		c-0.2-0.1-0.4-0.1-0.7-0.2c-0.5-0.1-1-0.3-1.6-0.5c-0.3-0.1-0.6-0.2-1-0.3c0,0,0,0-0.1,0c0,0-0.1,0-0.1,0c0,0.1,0,0.1,0,0.2
		s0,0.1,0,0.2c0,0.2-0.1,0.5-0.1,0.7c0,0.3-0.1,0.5-0.1,0.8c0,0.3-0.1,0.6-0.1,0.9c0,0.1,0,0.1,0,0.2c0,0.1,0,0.1,0.1,0.1
		c0.2,0.1,0.3,0.2,0.5,0.2c0.4,0.1,0.7,0.2,1.1,0.3c0.3,0.1,0.7,0.1,1,0.2c0.2,0,0.3,0,0.5,0c0.2,0,0.4,0,0.7,0c0.1,0,0.1,0,0.2,0
		c0.2,0,0.4,0,0.7,0c0.1,0,0.2,0,0.2,0c0.2,0,0.5,0,0.7,0c0.4,0,0.8-0.1,1.2-0.1c0.3,0,0.5-0.1,0.8-0.1c0.4-0.1,0.8-0.1,1.2-0.3
		c0.3-0.1,0.7-0.2,1-0.4c0.1,0,0.1-0.1,0.1-0.1c0-0.1,0-0.2,0-0.3c-0.1-0.4-0.1-0.8-0.2-1.3c0-0.1,0-0.2,0-0.3
		c0-0.3-0.1-0.5-0.1-0.8c0-0.1,0-0.2,0-0.3c0,0,0-0.1-0.1-0.1c0,0,0,0,0,0c-0.1,0-0.2,0.1-0.3,0.1c-0.7,0.2-1.3,0.4-2,0.6
		c-0.4,0.1-0.7,0.2-1.1,0.3c0,0-0.1,0-0.1,0.1C27.1,16.1,27.1,16.1,27,16.1L27,16.1z M20.4,12.9c0.1,0,0.2,0.1,0.2,0.1l1.3,0.4
		l1.8,0.5c0.1,0,0.2,0.1,0.4,0.1c0.3,0.1,0.5,0.2,0.7,0.2c0.3,0.1,0.6,0.2,0.9,0.3c0.3,0.1,0.6,0.1,1,0c0.4-0.1,0.7-0.2,1.1-0.3
		c0.3-0.1,0.5-0.2,0.8-0.3c0.7-0.2,1.4-0.4,2.1-0.7l1.1-0.3l1.9-0.6l1-0.3c0.3-0.1,0.5-0.2,0.8-0.2c0,0,0.1,0,0.1-0.1
		c-0.1,0-0.1-0.1-0.2-0.1c-0.4-0.1-0.8-0.3-1.3-0.4c-0.5-0.2-1-0.3-1.5-0.5c-0.7-0.2-1.4-0.4-2.1-0.7l-0.9-0.3
		c-0.5-0.2-1-0.3-1.5-0.5c-0.4-0.1-0.8-0.3-1.2-0.4C26.6,9,26.4,9,26.2,9C26,9,25.8,9,25.6,9c-0.5,0.1-1,0.3-1.5,0.5
		c-0.1,0-0.2,0.1-0.3,0.1c-0.2,0.1-0.4,0.1-0.6,0.2C23,9.9,22.8,9.9,22.6,10c-0.3,0.1-0.7,0.2-1,0.3c-0.2,0.1-0.4,0.1-0.6,0.2
		c-0.1,0-0.3,0.1-0.4,0.1c-0.7,0.2-1.5,0.5-2.2,0.7c-0.4,0.1-0.7,0.2-1.1,0.3c-0.1,0-0.2,0.1-0.3,0.1c0.1,0,0.1,0,0.2,0.1
		c0.3,0.1,0.7,0.2,1,0.3c0.1,0,0.2,0,0.4,0c0.2-0.1,0.3-0.1,0.5-0.2c0.4-0.1,0.8-0.1,1.2-0.2c0.5-0.1,1-0.2,1.5-0.3
		c0.3-0.1,0.6-0.1,1-0.2c0.5-0.1,1-0.2,1.5-0.3c0.5-0.1,1-0.2,1.5-0.3c0.2,0,0.3-0.1,0.5-0.1c0.2,0,0.3,0.1,0.4,0.2
		c0.2,0.2,0.2,0.5,0,0.7c-0.1,0.1-0.2,0.2-0.4,0.2c-0.3,0-0.5,0.1-0.8,0.1c-0.4,0.1-0.8,0.2-1.1,0.2c-0.2,0-0.4,0.1-0.6,0.1
		c-0.3,0-0.5,0.1-0.8,0.2c-0.2,0-0.5,0.1-0.7,0.1c-0.3,0.1-0.7,0.1-1,0.2C20.9,12.7,20.7,12.8,20.4,12.9L20.4,12.9z"/>
	<g class="st0">
		<path d="M19,28.2h-2.5v7.1h-1.6v-7.1h-2.5V27H19V28.2z"/>
		<path d="M23.9,29.4v6h-0.9c-0.2,0-0.3-0.1-0.4-0.3l-0.1-0.5c-0.2,0.2-0.5,0.4-0.8,0.6c-0.3,0.2-0.6,0.2-1,0.2
			c-0.3,0-0.6-0.1-0.9-0.2c-0.2-0.1-0.5-0.3-0.6-0.5c-0.2-0.2-0.3-0.4-0.4-0.7c-0.1-0.3-0.1-0.6-0.1-0.9v-3.8h1.4v3.8
			c0,0.4,0.1,0.6,0.3,0.8c0.2,0.2,0.4,0.3,0.8,0.3c0.2,0,0.5-0.1,0.7-0.2c0.2-0.1,0.4-0.3,0.6-0.5v-4.3H23.9z"/>
		<path d="M27.3,35.4c-0.5,0-0.9-0.1-1.2-0.4c-0.3-0.3-0.4-0.7-0.4-1.2v-3.3h-0.6c-0.1,0-0.1,0-0.2-0.1s-0.1-0.1-0.1-0.2v-0.6l1-0.2
			l0.3-1.6c0-0.1,0.1-0.1,0.1-0.2c0.1,0,0.1-0.1,0.2-0.1h0.7v1.9h1.6v1h-1.6v3.2c0,0.2,0,0.3,0.1,0.4c0.1,0.1,0.2,0.2,0.4,0.2
			c0.1,0,0.2,0,0.2,0c0.1,0,0.1,0,0.2-0.1c0,0,0.1,0,0.1-0.1c0,0,0.1,0,0.1,0c0,0,0.1,0,0.1,0c0,0,0.1,0.1,0.1,0.1l0.4,0.7
			c-0.2,0.2-0.4,0.3-0.7,0.4C27.9,35.4,27.6,35.4,27.3,35.4z"/>
		<path d="M32.3,29.3c0.4,0,0.8,0.1,1.2,0.2c0.4,0.1,0.7,0.3,0.9,0.6c0.3,0.3,0.5,0.6,0.6,1c0.1,0.4,0.2,0.8,0.2,1.3
			c0,0.5-0.1,0.9-0.2,1.3c-0.1,0.4-0.3,0.7-0.6,1c-0.3,0.3-0.6,0.5-0.9,0.6c-0.4,0.1-0.8,0.2-1.2,0.2c-0.4,0-0.8-0.1-1.2-0.2
			c-0.4-0.1-0.7-0.3-0.9-0.6c-0.3-0.3-0.5-0.6-0.6-1c-0.1-0.4-0.2-0.8-0.2-1.3c0-0.5,0.1-0.9,0.2-1.3c0.1-0.4,0.3-0.7,0.6-1
			c0.3-0.3,0.6-0.5,0.9-0.6C31.4,29.4,31.8,29.3,32.3,29.3z M32.3,34.3c0.5,0,0.9-0.2,1.1-0.5c0.2-0.3,0.4-0.8,0.4-1.5
			s-0.1-1.1-0.4-1.5c-0.2-0.3-0.6-0.5-1.1-0.5c-0.5,0-0.9,0.2-1.1,0.5c-0.2,0.3-0.4,0.8-0.4,1.5c0,0.6,0.1,1.1,0.4,1.5
			C31.4,34.2,31.8,34.3,32.3,34.3z"/>
		<path d="M37.6,30.4c0.2-0.4,0.4-0.6,0.7-0.8c0.3-0.2,0.6-0.3,0.9-0.3c0.3,0,0.5,0.1,0.7,0.2l-0.1,1.1c0,0.1,0,0.1-0.1,0.1
			c0,0-0.1,0-0.1,0c-0.1,0-0.1,0-0.3,0c-0.1,0-0.2,0-0.3,0c-0.2,0-0.3,0-0.4,0.1c-0.1,0-0.2,0.1-0.3,0.2c-0.1,0.1-0.2,0.2-0.3,0.3
			c-0.1,0.1-0.1,0.3-0.2,0.4v3.7h-1.4v-6h0.8c0.1,0,0.2,0,0.3,0.1c0.1,0.1,0.1,0.1,0.1,0.3L37.6,30.4z"/>
	</g>
</g>
</svg>
